<mxfile host="app.diagrams.net" modified="2023-12-21T19:14:55.740Z" agent="Mozilla/5.0 (X11; Linux x86_64) AppleWebKit/537.36 (KHTML, like Gecko) Chrome/118.0.0.0 Safari/537.36" etag="j48q2I4ZrBqJqto5-3_j" version="22.1.11" type="device">
  <diagram name="Страница — 1" id="P2ssvH5zpKEmrmrSXUsr">
    <mxGraphModel dx="2336" dy="794" grid="1" gridSize="10" guides="1" tooltips="1" connect="1" arrows="1" fold="1" page="1" pageScale="1" pageWidth="827" pageHeight="1169" math="0" shadow="0">
      <root>
        <mxCell id="0" />
        <mxCell id="1" parent="0" />
        <mxCell id="_C8S5lvewIOrktz_Ofcg-76" style="edgeStyle=orthogonalEdgeStyle;rounded=0;orthogonalLoop=1;jettySize=auto;html=1;exitX=0.5;exitY=1;exitDx=0;exitDy=0;entryX=0.5;entryY=0;entryDx=0;entryDy=0;strokeWidth=3;" edge="1" parent="1" source="_C8S5lvewIOrktz_Ofcg-2" target="_C8S5lvewIOrktz_Ofcg-75">
          <mxGeometry relative="1" as="geometry" />
        </mxCell>
        <mxCell id="_C8S5lvewIOrktz_Ofcg-2" value="Начало" style="rounded=1;whiteSpace=wrap;html=1;" vertex="1" parent="1">
          <mxGeometry x="361" y="20" width="106" height="30" as="geometry" />
        </mxCell>
        <mxCell id="_C8S5lvewIOrktz_Ofcg-3" style="edgeStyle=orthogonalEdgeStyle;rounded=0;orthogonalLoop=1;jettySize=auto;html=1;exitX=0.5;exitY=1;exitDx=0;exitDy=0;entryX=0.5;entryY=0;entryDx=0;entryDy=0;strokeWidth=3;" edge="1" parent="1" source="_C8S5lvewIOrktz_Ofcg-4" target="_C8S5lvewIOrktz_Ofcg-6">
          <mxGeometry relative="1" as="geometry" />
        </mxCell>
        <mxCell id="_C8S5lvewIOrktz_Ofcg-4" value="std::vector&amp;lt;int&amp;gt; primes;&lt;br&gt;int N = 30;&lt;br&gt;int i = 0;" style="rounded=0;whiteSpace=wrap;html=1;" vertex="1" parent="1">
          <mxGeometry x="343" y="220" width="142" height="40" as="geometry" />
        </mxCell>
        <mxCell id="_C8S5lvewIOrktz_Ofcg-5" style="edgeStyle=orthogonalEdgeStyle;rounded=0;orthogonalLoop=1;jettySize=auto;html=1;exitX=0.5;exitY=1;exitDx=0;exitDy=0;entryX=0.5;entryY=0;entryDx=0;entryDy=0;strokeWidth=3;" edge="1" parent="1" source="_C8S5lvewIOrktz_Ofcg-6" target="_C8S5lvewIOrktz_Ofcg-8">
          <mxGeometry relative="1" as="geometry" />
        </mxCell>
        <mxCell id="_C8S5lvewIOrktz_Ofcg-6" value="i &amp;lt;= N" style="rhombus;whiteSpace=wrap;html=1;" vertex="1" parent="1">
          <mxGeometry x="361" y="280" width="106" height="50" as="geometry" />
        </mxCell>
        <mxCell id="_C8S5lvewIOrktz_Ofcg-7" style="edgeStyle=orthogonalEdgeStyle;rounded=0;orthogonalLoop=1;jettySize=auto;html=1;exitX=0.5;exitY=1;exitDx=0;exitDy=0;entryX=0.5;entryY=0;entryDx=0;entryDy=0;strokeWidth=3;" edge="1" parent="1" source="_C8S5lvewIOrktz_Ofcg-8" target="_C8S5lvewIOrktz_Ofcg-10">
          <mxGeometry relative="1" as="geometry" />
        </mxCell>
        <mxCell id="_C8S5lvewIOrktz_Ofcg-8" value="check =&amp;nbsp;CheckBasis(i);" style="rounded=0;whiteSpace=wrap;html=1;" vertex="1" parent="1">
          <mxGeometry x="335" y="360" width="157" height="40" as="geometry" />
        </mxCell>
        <mxCell id="_C8S5lvewIOrktz_Ofcg-9" style="edgeStyle=orthogonalEdgeStyle;rounded=0;orthogonalLoop=1;jettySize=auto;html=1;exitX=0.5;exitY=1;exitDx=0;exitDy=0;entryX=0.5;entryY=0;entryDx=0;entryDy=0;strokeWidth=3;" edge="1" parent="1" source="_C8S5lvewIOrktz_Ofcg-10" target="_C8S5lvewIOrktz_Ofcg-38">
          <mxGeometry relative="1" as="geometry" />
        </mxCell>
        <mxCell id="_C8S5lvewIOrktz_Ofcg-10" value="CheckBasis(int n), возвращает bool" style="swimlane;whiteSpace=wrap;html=1;" vertex="1" parent="1">
          <mxGeometry x="231" y="420" width="366" height="490" as="geometry" />
        </mxCell>
        <mxCell id="_C8S5lvewIOrktz_Ofcg-11" style="edgeStyle=orthogonalEdgeStyle;rounded=0;orthogonalLoop=1;jettySize=auto;html=1;exitX=0;exitY=0.5;exitDx=0;exitDy=0;entryX=1;entryY=0.5;entryDx=0;entryDy=0;strokeWidth=3;" edge="1" parent="_C8S5lvewIOrktz_Ofcg-10" source="_C8S5lvewIOrktz_Ofcg-15" target="_C8S5lvewIOrktz_Ofcg-16">
          <mxGeometry relative="1" as="geometry" />
        </mxCell>
        <mxCell id="_C8S5lvewIOrktz_Ofcg-12" value="&lt;font style=&quot;font-size: 15px;&quot;&gt;Да&lt;/font&gt;" style="edgeLabel;html=1;align=center;verticalAlign=middle;resizable=0;points=[];" vertex="1" connectable="0" parent="_C8S5lvewIOrktz_Ofcg-11">
          <mxGeometry x="-0.1333" y="1" relative="1" as="geometry">
            <mxPoint as="offset" />
          </mxGeometry>
        </mxCell>
        <mxCell id="_C8S5lvewIOrktz_Ofcg-13" style="edgeStyle=orthogonalEdgeStyle;rounded=0;orthogonalLoop=1;jettySize=auto;html=1;exitX=0.5;exitY=1;exitDx=0;exitDy=0;entryX=0.5;entryY=0;entryDx=0;entryDy=0;strokeWidth=3;" edge="1" parent="_C8S5lvewIOrktz_Ofcg-10" source="_C8S5lvewIOrktz_Ofcg-15" target="_C8S5lvewIOrktz_Ofcg-18">
          <mxGeometry relative="1" as="geometry" />
        </mxCell>
        <mxCell id="_C8S5lvewIOrktz_Ofcg-14" value="&lt;font style=&quot;font-size: 15px;&quot;&gt;Нет&lt;/font&gt;" style="edgeLabel;html=1;align=center;verticalAlign=middle;resizable=0;points=[];" vertex="1" connectable="0" parent="_C8S5lvewIOrktz_Ofcg-13">
          <mxGeometry x="-0.1477" y="1" relative="1" as="geometry">
            <mxPoint as="offset" />
          </mxGeometry>
        </mxCell>
        <mxCell id="_C8S5lvewIOrktz_Ofcg-15" value="n &amp;lt;= 1" style="rhombus;whiteSpace=wrap;html=1;" vertex="1" parent="_C8S5lvewIOrktz_Ofcg-10">
          <mxGeometry x="139" y="40" width="87" height="40" as="geometry" />
        </mxCell>
        <mxCell id="_C8S5lvewIOrktz_Ofcg-16" value="return false;" style="rounded=0;whiteSpace=wrap;html=1;" vertex="1" parent="_C8S5lvewIOrktz_Ofcg-10">
          <mxGeometry x="19" y="45" width="80" height="30" as="geometry" />
        </mxCell>
        <mxCell id="_C8S5lvewIOrktz_Ofcg-17" style="edgeStyle=orthogonalEdgeStyle;rounded=0;orthogonalLoop=1;jettySize=auto;html=1;exitX=0.5;exitY=1;exitDx=0;exitDy=0;entryX=0.5;entryY=0;entryDx=0;entryDy=0;" edge="1" parent="_C8S5lvewIOrktz_Ofcg-10" source="_C8S5lvewIOrktz_Ofcg-18" target="_C8S5lvewIOrktz_Ofcg-23">
          <mxGeometry relative="1" as="geometry" />
        </mxCell>
        <mxCell id="_C8S5lvewIOrktz_Ofcg-18" value="int i = 2;" style="rounded=0;whiteSpace=wrap;html=1;" vertex="1" parent="_C8S5lvewIOrktz_Ofcg-10">
          <mxGeometry x="144.5" y="110" width="77" height="25" as="geometry" />
        </mxCell>
        <mxCell id="_C8S5lvewIOrktz_Ofcg-19" style="edgeStyle=orthogonalEdgeStyle;rounded=0;orthogonalLoop=1;jettySize=auto;html=1;exitX=0.5;exitY=1;exitDx=0;exitDy=0;entryX=0.5;entryY=0;entryDx=0;entryDy=0;strokeWidth=3;" edge="1" parent="_C8S5lvewIOrktz_Ofcg-10" source="_C8S5lvewIOrktz_Ofcg-23" target="_C8S5lvewIOrktz_Ofcg-28">
          <mxGeometry relative="1" as="geometry" />
        </mxCell>
        <mxCell id="_C8S5lvewIOrktz_Ofcg-20" value="&lt;font style=&quot;font-size: 15px;&quot;&gt;Да&lt;/font&gt;" style="edgeLabel;html=1;align=center;verticalAlign=middle;resizable=0;points=[];" vertex="1" connectable="0" parent="_C8S5lvewIOrktz_Ofcg-19">
          <mxGeometry x="-0.3335" y="3" relative="1" as="geometry">
            <mxPoint as="offset" />
          </mxGeometry>
        </mxCell>
        <mxCell id="_C8S5lvewIOrktz_Ofcg-21" style="edgeStyle=orthogonalEdgeStyle;rounded=0;orthogonalLoop=1;jettySize=auto;html=1;exitX=0;exitY=0.5;exitDx=0;exitDy=0;entryX=0.5;entryY=0;entryDx=0;entryDy=0;strokeWidth=3;" edge="1" parent="_C8S5lvewIOrktz_Ofcg-10" source="_C8S5lvewIOrktz_Ofcg-23" target="_C8S5lvewIOrktz_Ofcg-31">
          <mxGeometry relative="1" as="geometry">
            <Array as="points">
              <mxPoint x="99" y="180" />
              <mxPoint x="99" y="410" />
              <mxPoint x="183" y="410" />
            </Array>
          </mxGeometry>
        </mxCell>
        <mxCell id="_C8S5lvewIOrktz_Ofcg-22" value="&lt;font style=&quot;font-size: 15px;&quot;&gt;Нет&lt;/font&gt;" style="edgeLabel;html=1;align=center;verticalAlign=middle;resizable=0;points=[];" vertex="1" connectable="0" parent="_C8S5lvewIOrktz_Ofcg-21">
          <mxGeometry x="-0.8826" y="-1" relative="1" as="geometry">
            <mxPoint as="offset" />
          </mxGeometry>
        </mxCell>
        <mxCell id="_C8S5lvewIOrktz_Ofcg-23" value="i&amp;lt;=sqrt(n)" style="rhombus;whiteSpace=wrap;html=1;" vertex="1" parent="_C8S5lvewIOrktz_Ofcg-10">
          <mxGeometry x="144" y="160" width="77" height="40" as="geometry" />
        </mxCell>
        <mxCell id="_C8S5lvewIOrktz_Ofcg-24" style="edgeStyle=orthogonalEdgeStyle;rounded=0;orthogonalLoop=1;jettySize=auto;html=1;exitX=0.5;exitY=1;exitDx=0;exitDy=0;entryX=0.5;entryY=0;entryDx=0;entryDy=0;strokeWidth=3;" edge="1" parent="_C8S5lvewIOrktz_Ofcg-10" source="_C8S5lvewIOrktz_Ofcg-28" target="_C8S5lvewIOrktz_Ofcg-30">
          <mxGeometry relative="1" as="geometry" />
        </mxCell>
        <mxCell id="_C8S5lvewIOrktz_Ofcg-25" value="Да" style="edgeLabel;html=1;align=center;verticalAlign=middle;resizable=0;points=[];" vertex="1" connectable="0" parent="_C8S5lvewIOrktz_Ofcg-24">
          <mxGeometry x="-0.3778" relative="1" as="geometry">
            <mxPoint as="offset" />
          </mxGeometry>
        </mxCell>
        <mxCell id="_C8S5lvewIOrktz_Ofcg-26" style="edgeStyle=orthogonalEdgeStyle;rounded=0;orthogonalLoop=1;jettySize=auto;html=1;exitX=0;exitY=0.5;exitDx=0;exitDy=0;entryX=0;entryY=0.5;entryDx=0;entryDy=0;strokeWidth=3;" edge="1" parent="_C8S5lvewIOrktz_Ofcg-10" source="_C8S5lvewIOrktz_Ofcg-28" target="_C8S5lvewIOrktz_Ofcg-33">
          <mxGeometry relative="1" as="geometry">
            <Array as="points">
              <mxPoint x="119" y="260" />
              <mxPoint x="119" y="383" />
            </Array>
          </mxGeometry>
        </mxCell>
        <mxCell id="_C8S5lvewIOrktz_Ofcg-27" value="&lt;font style=&quot;font-size: 15px;&quot;&gt;Нет&lt;/font&gt;" style="edgeLabel;html=1;align=center;verticalAlign=middle;resizable=0;points=[];" vertex="1" connectable="0" parent="_C8S5lvewIOrktz_Ofcg-26">
          <mxGeometry x="-0.8786" y="-2" relative="1" as="geometry">
            <mxPoint as="offset" />
          </mxGeometry>
        </mxCell>
        <mxCell id="_C8S5lvewIOrktz_Ofcg-28" value="n%i == 0" style="rhombus;whiteSpace=wrap;html=1;" vertex="1" parent="_C8S5lvewIOrktz_Ofcg-10">
          <mxGeometry x="144.5" y="240" width="77" height="40" as="geometry" />
        </mxCell>
        <mxCell id="_C8S5lvewIOrktz_Ofcg-29" style="edgeStyle=orthogonalEdgeStyle;rounded=0;orthogonalLoop=1;jettySize=auto;html=1;exitX=0.5;exitY=1;exitDx=0;exitDy=0;entryX=0.5;entryY=0;entryDx=0;entryDy=0;strokeWidth=3;" edge="1" parent="_C8S5lvewIOrktz_Ofcg-10" source="_C8S5lvewIOrktz_Ofcg-30" target="_C8S5lvewIOrktz_Ofcg-33">
          <mxGeometry relative="1" as="geometry" />
        </mxCell>
        <mxCell id="_C8S5lvewIOrktz_Ofcg-30" value="return false;" style="rounded=0;whiteSpace=wrap;html=1;" vertex="1" parent="_C8S5lvewIOrktz_Ofcg-10">
          <mxGeometry x="144" y="310" width="77" height="30" as="geometry" />
        </mxCell>
        <mxCell id="_C8S5lvewIOrktz_Ofcg-31" value="return false;" style="rounded=0;whiteSpace=wrap;html=1;" vertex="1" parent="_C8S5lvewIOrktz_Ofcg-10">
          <mxGeometry x="144.5" y="430" width="77" height="30" as="geometry" />
        </mxCell>
        <mxCell id="_C8S5lvewIOrktz_Ofcg-32" style="edgeStyle=orthogonalEdgeStyle;rounded=0;orthogonalLoop=1;jettySize=auto;html=1;exitX=1;exitY=0.5;exitDx=0;exitDy=0;entryX=1;entryY=0.5;entryDx=0;entryDy=0;strokeWidth=3;" edge="1" parent="_C8S5lvewIOrktz_Ofcg-10" source="_C8S5lvewIOrktz_Ofcg-33" target="_C8S5lvewIOrktz_Ofcg-23">
          <mxGeometry relative="1" as="geometry">
            <Array as="points">
              <mxPoint x="259" y="383" />
              <mxPoint x="259" y="180" />
            </Array>
          </mxGeometry>
        </mxCell>
        <mxCell id="_C8S5lvewIOrktz_Ofcg-33" value="i++;" style="rounded=0;whiteSpace=wrap;html=1;" vertex="1" parent="_C8S5lvewIOrktz_Ofcg-10">
          <mxGeometry x="144" y="370" width="77" height="25" as="geometry" />
        </mxCell>
        <mxCell id="_C8S5lvewIOrktz_Ofcg-34" style="edgeStyle=orthogonalEdgeStyle;rounded=0;orthogonalLoop=1;jettySize=auto;html=1;exitX=0.5;exitY=1;exitDx=0;exitDy=0;entryX=0.5;entryY=0;entryDx=0;entryDy=0;strokeWidth=3;" edge="1" parent="1" source="_C8S5lvewIOrktz_Ofcg-38" target="_C8S5lvewIOrktz_Ofcg-40">
          <mxGeometry relative="1" as="geometry" />
        </mxCell>
        <mxCell id="_C8S5lvewIOrktz_Ofcg-35" value="&lt;font style=&quot;font-size: 15px;&quot;&gt;Да&lt;/font&gt;" style="edgeLabel;html=1;align=center;verticalAlign=middle;resizable=0;points=[];" vertex="1" connectable="0" parent="_C8S5lvewIOrktz_Ofcg-34">
          <mxGeometry x="-0.4267" y="-4" relative="1" as="geometry">
            <mxPoint as="offset" />
          </mxGeometry>
        </mxCell>
        <mxCell id="_C8S5lvewIOrktz_Ofcg-36" style="edgeStyle=orthogonalEdgeStyle;rounded=0;orthogonalLoop=1;jettySize=auto;html=1;exitX=0;exitY=0.5;exitDx=0;exitDy=0;entryX=0;entryY=0.5;entryDx=0;entryDy=0;strokeWidth=3;" edge="1" parent="1" source="_C8S5lvewIOrktz_Ofcg-38" target="_C8S5lvewIOrktz_Ofcg-43">
          <mxGeometry relative="1" as="geometry">
            <Array as="points">
              <mxPoint x="320" y="970" />
              <mxPoint x="320" y="1130" />
            </Array>
          </mxGeometry>
        </mxCell>
        <mxCell id="_C8S5lvewIOrktz_Ofcg-37" value="&lt;font style=&quot;font-size: 13px;&quot;&gt;Нет&lt;/font&gt;" style="edgeLabel;html=1;align=center;verticalAlign=middle;resizable=0;points=[];" vertex="1" connectable="0" parent="_C8S5lvewIOrktz_Ofcg-36">
          <mxGeometry x="-0.8161" y="-4" relative="1" as="geometry">
            <mxPoint as="offset" />
          </mxGeometry>
        </mxCell>
        <mxCell id="_C8S5lvewIOrktz_Ofcg-38" value="check" style="rhombus;whiteSpace=wrap;html=1;" vertex="1" parent="1">
          <mxGeometry x="366" y="950" width="96" height="40" as="geometry" />
        </mxCell>
        <mxCell id="_C8S5lvewIOrktz_Ofcg-39" style="edgeStyle=orthogonalEdgeStyle;rounded=0;orthogonalLoop=1;jettySize=auto;html=1;exitX=0.5;exitY=1;exitDx=0;exitDy=0;entryX=0.5;entryY=0;entryDx=0;entryDy=0;strokeWidth=3;" edge="1" parent="1" source="_C8S5lvewIOrktz_Ofcg-40" target="_C8S5lvewIOrktz_Ofcg-43">
          <mxGeometry relative="1" as="geometry" />
        </mxCell>
        <mxCell id="_C8S5lvewIOrktz_Ofcg-40" value="primes.push_back(i);" style="rounded=0;whiteSpace=wrap;html=1;" vertex="1" parent="1">
          <mxGeometry x="351" y="1040" width="126" height="40" as="geometry" />
        </mxCell>
        <mxCell id="_C8S5lvewIOrktz_Ofcg-41" style="edgeStyle=orthogonalEdgeStyle;rounded=0;orthogonalLoop=1;jettySize=auto;html=1;exitX=1;exitY=0.5;exitDx=0;exitDy=0;entryX=1;entryY=0.5;entryDx=0;entryDy=0;strokeWidth=3;" edge="1" parent="1" source="_C8S5lvewIOrktz_Ofcg-43" target="_C8S5lvewIOrktz_Ofcg-6">
          <mxGeometry relative="1" as="geometry">
            <Array as="points">
              <mxPoint x="630" y="1130" />
              <mxPoint x="630" y="305" />
            </Array>
          </mxGeometry>
        </mxCell>
        <mxCell id="_C8S5lvewIOrktz_Ofcg-42" style="edgeStyle=orthogonalEdgeStyle;rounded=0;orthogonalLoop=1;jettySize=auto;html=1;exitX=0.5;exitY=1;exitDx=0;exitDy=0;entryX=0.5;entryY=0;entryDx=0;entryDy=0;strokeWidth=3;" edge="1" parent="1" source="_C8S5lvewIOrktz_Ofcg-43" target="_C8S5lvewIOrktz_Ofcg-45">
          <mxGeometry relative="1" as="geometry">
            <Array as="points">
              <mxPoint x="414" y="1180" />
              <mxPoint x="100" y="1180" />
              <mxPoint x="100" y="160" />
              <mxPoint x="-255" y="160" />
            </Array>
          </mxGeometry>
        </mxCell>
        <mxCell id="_C8S5lvewIOrktz_Ofcg-43" value="++i;" style="rounded=0;whiteSpace=wrap;html=1;" vertex="1" parent="1">
          <mxGeometry x="386" y="1120" width="56" height="20" as="geometry" />
        </mxCell>
        <mxCell id="_C8S5lvewIOrktz_Ofcg-44" style="edgeStyle=orthogonalEdgeStyle;rounded=0;orthogonalLoop=1;jettySize=auto;html=1;exitX=0.5;exitY=1;exitDx=0;exitDy=0;entryX=0.5;entryY=0;entryDx=0;entryDy=0;strokeWidth=3;" edge="1" parent="1" source="_C8S5lvewIOrktz_Ofcg-45" target="_C8S5lvewIOrktz_Ofcg-49">
          <mxGeometry relative="1" as="geometry" />
        </mxCell>
        <mxCell id="_C8S5lvewIOrktz_Ofcg-45" value="&lt;div&gt;int primesPerProcess = primes.size() / this-&amp;gt;sizer;&lt;/div&gt;&lt;div&gt;&amp;nbsp; &amp;nbsp; &amp;nbsp; &amp;nbsp; int start = this-&amp;gt;ranker * primesPerProcess;&lt;/div&gt;&lt;div&gt;&amp;nbsp; &amp;nbsp; &amp;nbsp; &amp;nbsp; int end = (this-&amp;gt;ranker == this-&amp;gt;sizer - 1) ? primes.size() : start + primesPerProcess;&lt;/div&gt;" style="rounded=0;whiteSpace=wrap;html=1;" vertex="1" parent="1">
          <mxGeometry x="-457.5" y="230" width="405" height="60" as="geometry" />
        </mxCell>
        <mxCell id="_C8S5lvewIOrktz_Ofcg-46" style="edgeStyle=orthogonalEdgeStyle;rounded=0;orthogonalLoop=1;jettySize=auto;html=1;exitX=0.5;exitY=1;exitDx=0;exitDy=0;entryX=0.5;entryY=0;entryDx=0;entryDy=0;strokeWidth=3;" edge="1" parent="1" source="_C8S5lvewIOrktz_Ofcg-49" target="_C8S5lvewIOrktz_Ofcg-51">
          <mxGeometry relative="1" as="geometry" />
        </mxCell>
        <mxCell id="_C8S5lvewIOrktz_Ofcg-47" value="&lt;font style=&quot;font-size: 15px;&quot;&gt;Да&lt;/font&gt;" style="edgeLabel;html=1;align=center;verticalAlign=middle;resizable=0;points=[];" vertex="1" connectable="0" parent="_C8S5lvewIOrktz_Ofcg-46">
          <mxGeometry x="-0.5402" relative="1" as="geometry">
            <mxPoint as="offset" />
          </mxGeometry>
        </mxCell>
        <mxCell id="_C8S5lvewIOrktz_Ofcg-48" style="edgeStyle=orthogonalEdgeStyle;rounded=0;orthogonalLoop=1;jettySize=auto;html=1;exitX=0;exitY=0.5;exitDx=0;exitDy=0;entryX=0.5;entryY=0;entryDx=0;entryDy=0;strokeWidth=3;" edge="1" parent="1" source="_C8S5lvewIOrktz_Ofcg-49" target="_C8S5lvewIOrktz_Ofcg-80">
          <mxGeometry relative="1" as="geometry">
            <Array as="points">
              <mxPoint x="-470" y="355" />
              <mxPoint x="-470" y="1030" />
              <mxPoint x="-257" y="1030" />
            </Array>
            <mxPoint x="-255" y="1050" as="targetPoint" />
          </mxGeometry>
        </mxCell>
        <mxCell id="_C8S5lvewIOrktz_Ofcg-49" value="N &amp;gt;= 28" style="rhombus;whiteSpace=wrap;html=1;" vertex="1" parent="1">
          <mxGeometry x="-320" y="330" width="130" height="50" as="geometry" />
        </mxCell>
        <mxCell id="_C8S5lvewIOrktz_Ofcg-50" style="edgeStyle=orthogonalEdgeStyle;rounded=0;orthogonalLoop=1;jettySize=auto;html=1;exitX=0.5;exitY=1;exitDx=0;exitDy=0;entryX=0.5;entryY=0;entryDx=0;entryDy=0;strokeWidth=3;" edge="1" parent="1" source="_C8S5lvewIOrktz_Ofcg-51" target="_C8S5lvewIOrktz_Ofcg-55">
          <mxGeometry relative="1" as="geometry" />
        </mxCell>
        <mxCell id="_C8S5lvewIOrktz_Ofcg-51" value="int i = start;" style="rounded=0;whiteSpace=wrap;html=1;" vertex="1" parent="1">
          <mxGeometry x="-297.5" y="410" width="85" height="30" as="geometry" />
        </mxCell>
        <mxCell id="_C8S5lvewIOrktz_Ofcg-52" style="edgeStyle=orthogonalEdgeStyle;rounded=0;orthogonalLoop=1;jettySize=auto;html=1;exitX=0.5;exitY=1;exitDx=0;exitDy=0;entryX=0.5;entryY=0;entryDx=0;entryDy=0;strokeWidth=3;" edge="1" parent="1" source="_C8S5lvewIOrktz_Ofcg-55" target="_C8S5lvewIOrktz_Ofcg-57">
          <mxGeometry relative="1" as="geometry" />
        </mxCell>
        <mxCell id="_C8S5lvewIOrktz_Ofcg-53" value="&lt;font style=&quot;font-size: 15px;&quot;&gt;Да&lt;/font&gt;" style="edgeLabel;html=1;align=center;verticalAlign=middle;resizable=0;points=[];" vertex="1" connectable="0" parent="_C8S5lvewIOrktz_Ofcg-52">
          <mxGeometry x="-0.3807" relative="1" as="geometry">
            <mxPoint as="offset" />
          </mxGeometry>
        </mxCell>
        <mxCell id="_C8S5lvewIOrktz_Ofcg-54" style="edgeStyle=orthogonalEdgeStyle;rounded=0;orthogonalLoop=1;jettySize=auto;html=1;exitX=0;exitY=0.5;exitDx=0;exitDy=0;strokeWidth=3;" edge="1" parent="1" source="_C8S5lvewIOrktz_Ofcg-55">
          <mxGeometry relative="1" as="geometry">
            <mxPoint x="-40" y="920" as="targetPoint" />
            <Array as="points">
              <mxPoint x="-430" y="480" />
              <mxPoint x="-430" y="970" />
              <mxPoint x="-40" y="970" />
            </Array>
          </mxGeometry>
        </mxCell>
        <mxCell id="_C8S5lvewIOrktz_Ofcg-55" value="i &amp;lt; end" style="rhombus;whiteSpace=wrap;html=1;" vertex="1" parent="1">
          <mxGeometry x="-318.75" y="460" width="127.5" height="40" as="geometry" />
        </mxCell>
        <mxCell id="_C8S5lvewIOrktz_Ofcg-56" style="edgeStyle=orthogonalEdgeStyle;rounded=0;orthogonalLoop=1;jettySize=auto;html=1;exitX=0.5;exitY=1;exitDx=0;exitDy=0;entryX=0.5;entryY=0;entryDx=0;entryDy=0;strokeWidth=3;" edge="1" parent="1" source="_C8S5lvewIOrktz_Ofcg-57" target="_C8S5lvewIOrktz_Ofcg-62">
          <mxGeometry relative="1" as="geometry" />
        </mxCell>
        <mxCell id="_C8S5lvewIOrktz_Ofcg-57" value="int value = pow(primes[i], 2) + pow(primes[i], 3) + pow(primes[i], 4);" style="rounded=0;whiteSpace=wrap;html=1;" vertex="1" parent="1">
          <mxGeometry x="-387.5" y="544.5" width="265" height="60" as="geometry" />
        </mxCell>
        <mxCell id="_C8S5lvewIOrktz_Ofcg-58" style="edgeStyle=orthogonalEdgeStyle;rounded=0;orthogonalLoop=1;jettySize=auto;html=1;exitX=0.5;exitY=1;exitDx=0;exitDy=0;entryX=0.5;entryY=0;entryDx=0;entryDy=0;strokeWidth=3;" edge="1" parent="1" source="_C8S5lvewIOrktz_Ofcg-62" target="_C8S5lvewIOrktz_Ofcg-68">
          <mxGeometry relative="1" as="geometry" />
        </mxCell>
        <mxCell id="_C8S5lvewIOrktz_Ofcg-59" value="&lt;font style=&quot;font-size: 15px;&quot;&gt;Да&lt;/font&gt;" style="edgeLabel;html=1;align=center;verticalAlign=middle;resizable=0;points=[];" vertex="1" connectable="0" parent="_C8S5lvewIOrktz_Ofcg-58">
          <mxGeometry x="-0.4253" y="-3" relative="1" as="geometry">
            <mxPoint as="offset" />
          </mxGeometry>
        </mxCell>
        <mxCell id="_C8S5lvewIOrktz_Ofcg-60" style="edgeStyle=orthogonalEdgeStyle;rounded=0;orthogonalLoop=1;jettySize=auto;html=1;exitX=0;exitY=0.5;exitDx=0;exitDy=0;entryX=0.5;entryY=0;entryDx=0;entryDy=0;strokeWidth=3;" edge="1" parent="1" source="_C8S5lvewIOrktz_Ofcg-62" target="_C8S5lvewIOrktz_Ofcg-67">
          <mxGeometry relative="1" as="geometry">
            <Array as="points">
              <mxPoint x="-400" y="670" />
              <mxPoint x="-400" y="800" />
            </Array>
          </mxGeometry>
        </mxCell>
        <mxCell id="_C8S5lvewIOrktz_Ofcg-61" value="&lt;font style=&quot;font-size: 15px;&quot;&gt;Нет&lt;/font&gt;" style="edgeLabel;html=1;align=center;verticalAlign=middle;resizable=0;points=[];" vertex="1" connectable="0" parent="_C8S5lvewIOrktz_Ofcg-60">
          <mxGeometry x="-0.9067" y="-2" relative="1" as="geometry">
            <mxPoint as="offset" />
          </mxGeometry>
        </mxCell>
        <mxCell id="_C8S5lvewIOrktz_Ofcg-62" value="N == value" style="rhombus;whiteSpace=wrap;html=1;" vertex="1" parent="1">
          <mxGeometry x="-318.75" y="650" width="127.5" height="40" as="geometry" />
        </mxCell>
        <mxCell id="_C8S5lvewIOrktz_Ofcg-63" style="edgeStyle=orthogonalEdgeStyle;rounded=0;orthogonalLoop=1;jettySize=auto;html=1;exitX=0.5;exitY=1;exitDx=0;exitDy=0;entryX=0.5;entryY=0;entryDx=0;entryDy=0;strokeWidth=3;" edge="1" parent="1" source="_C8S5lvewIOrktz_Ofcg-67" target="_C8S5lvewIOrktz_Ofcg-70">
          <mxGeometry relative="1" as="geometry" />
        </mxCell>
        <mxCell id="_C8S5lvewIOrktz_Ofcg-64" value="&lt;font style=&quot;font-size: 15px;&quot;&gt;Да&lt;/font&gt;" style="edgeLabel;html=1;align=center;verticalAlign=middle;resizable=0;points=[];" vertex="1" connectable="0" parent="_C8S5lvewIOrktz_Ofcg-63">
          <mxGeometry x="0.0172" y="2" relative="1" as="geometry">
            <mxPoint as="offset" />
          </mxGeometry>
        </mxCell>
        <mxCell id="_C8S5lvewIOrktz_Ofcg-65" style="edgeStyle=orthogonalEdgeStyle;rounded=0;orthogonalLoop=1;jettySize=auto;html=1;exitX=0;exitY=0.5;exitDx=0;exitDy=0;entryX=1;entryY=0.5;entryDx=0;entryDy=0;strokeWidth=3;" edge="1" parent="1" source="_C8S5lvewIOrktz_Ofcg-67" target="_C8S5lvewIOrktz_Ofcg-55">
          <mxGeometry relative="1" as="geometry">
            <Array as="points">
              <mxPoint x="-380" y="850" />
              <mxPoint x="-380" y="950" />
              <mxPoint x="-110" y="950" />
              <mxPoint x="-110" y="480" />
            </Array>
          </mxGeometry>
        </mxCell>
        <mxCell id="_C8S5lvewIOrktz_Ofcg-66" value="&lt;font style=&quot;font-size: 15px;&quot;&gt;Нет&lt;/font&gt;" style="edgeLabel;html=1;align=center;verticalAlign=middle;resizable=0;points=[];" vertex="1" connectable="0" parent="_C8S5lvewIOrktz_Ofcg-65">
          <mxGeometry x="-0.9565" y="2" relative="1" as="geometry">
            <mxPoint as="offset" />
          </mxGeometry>
        </mxCell>
        <mxCell id="_C8S5lvewIOrktz_Ofcg-67" value="N &amp;lt; value" style="rhombus;whiteSpace=wrap;html=1;" vertex="1" parent="1">
          <mxGeometry x="-318.75" y="830" width="127.5" height="40" as="geometry" />
        </mxCell>
        <mxCell id="_C8S5lvewIOrktz_Ofcg-68" value="return pow(primes[i], 2) + pow(primes[i], 3) + pow(primes[i], 4);" style="rounded=0;whiteSpace=wrap;html=1;" vertex="1" parent="1">
          <mxGeometry x="-373.75" y="730" width="237.5" height="40" as="geometry" />
        </mxCell>
        <mxCell id="_C8S5lvewIOrktz_Ofcg-69" style="edgeStyle=orthogonalEdgeStyle;rounded=0;orthogonalLoop=1;jettySize=auto;html=1;exitX=1;exitY=0.5;exitDx=0;exitDy=0;entryX=1;entryY=0.5;entryDx=0;entryDy=0;strokeWidth=3;" edge="1" parent="1" source="_C8S5lvewIOrktz_Ofcg-70" target="_C8S5lvewIOrktz_Ofcg-49">
          <mxGeometry relative="1" as="geometry">
            <Array as="points">
              <mxPoint x="-30" y="920" />
              <mxPoint x="-30" y="355" />
            </Array>
          </mxGeometry>
        </mxCell>
        <mxCell id="_C8S5lvewIOrktz_Ofcg-70" value="break;" style="rounded=0;whiteSpace=wrap;html=1;" vertex="1" parent="1">
          <mxGeometry x="-287.5" y="910" width="65" height="20" as="geometry" />
        </mxCell>
        <mxCell id="_C8S5lvewIOrktz_Ofcg-73" value="Конец" style="rounded=1;whiteSpace=wrap;html=1;" vertex="1" parent="1">
          <mxGeometry x="-314.5" y="1230" width="115" height="30" as="geometry" />
        </mxCell>
        <mxCell id="_C8S5lvewIOrktz_Ofcg-78" style="edgeStyle=orthogonalEdgeStyle;rounded=0;orthogonalLoop=1;jettySize=auto;html=1;exitX=0.5;exitY=1;exitDx=0;exitDy=0;entryX=0.5;entryY=0;entryDx=0;entryDy=0;strokeWidth=3;" edge="1" parent="1" source="_C8S5lvewIOrktz_Ofcg-74" target="_C8S5lvewIOrktz_Ofcg-4">
          <mxGeometry relative="1" as="geometry" />
        </mxCell>
        <mxCell id="_C8S5lvewIOrktz_Ofcg-74" value="Инициализация MPI и получение size и rank" style="rounded=0;whiteSpace=wrap;html=1;" vertex="1" parent="1">
          <mxGeometry x="351" y="130" width="126" height="40" as="geometry" />
        </mxCell>
        <mxCell id="_C8S5lvewIOrktz_Ofcg-77" style="edgeStyle=orthogonalEdgeStyle;rounded=0;orthogonalLoop=1;jettySize=auto;html=1;exitX=0.5;exitY=1;exitDx=0;exitDy=0;entryX=0.5;entryY=0;entryDx=0;entryDy=0;strokeWidth=3;" edge="1" parent="1" source="_C8S5lvewIOrktz_Ofcg-75" target="_C8S5lvewIOrktz_Ofcg-74">
          <mxGeometry relative="1" as="geometry" />
        </mxCell>
        <mxCell id="_C8S5lvewIOrktz_Ofcg-75" value="int rank, size;" style="rounded=0;whiteSpace=wrap;html=1;" vertex="1" parent="1">
          <mxGeometry x="366" y="80" width="96" height="20" as="geometry" />
        </mxCell>
        <mxCell id="_C8S5lvewIOrktz_Ofcg-81" style="edgeStyle=orthogonalEdgeStyle;rounded=0;orthogonalLoop=1;jettySize=auto;html=1;exitX=0.5;exitY=1;exitDx=0;exitDy=0;entryX=0.5;entryY=0;entryDx=0;entryDy=0;" edge="1" parent="1" source="_C8S5lvewIOrktz_Ofcg-80" target="_C8S5lvewIOrktz_Ofcg-73">
          <mxGeometry relative="1" as="geometry" />
        </mxCell>
        <mxCell id="_C8S5lvewIOrktz_Ofcg-80" value="Синхронизация выходного значения с рангом 0" style="rounded=0;whiteSpace=wrap;html=1;" vertex="1" parent="1">
          <mxGeometry x="-502" y="1129" width="490" height="40" as="geometry" />
        </mxCell>
      </root>
    </mxGraphModel>
  </diagram>
</mxfile>
